<svg xmlns="http://www.w3.org/2000/svg" version="1.1" xmlns:xlink="http://www.w3.org/1999/xlink" xmlns:svgjs="http://svgjs.dev/svgjs" width="1500" height="397" viewBox="0 0 1500 397"><g transform="matrix(1,0,0,1,-0.9090909090909918,-0.8965355970505584)"><svg viewBox="0 0 396 105" data-background-color="#ffffff" preserveAspectRatio="xMidYMid meet" height="397" width="1500" xmlns="http://www.w3.org/2000/svg" xmlns:xlink="http://www.w3.org/1999/xlink"><g id="tight-bounds" transform="matrix(1,0,0,1,0.2400000000000091,0.23711898662546105)"><svg viewBox="0 0 395.52 104.52576202674906" height="104.52576202674906" width="395.52"><g><svg viewBox="0 0 580.5725874699076 153.4304007815876" height="104.52576202674906" width="395.52"><g transform="matrix(1,0,0,1,185.0525874699076,9.835350696101457)"><svg viewBox="0 0 395.52 133.75969938938468" height="133.75969938938468" width="395.52"><g id="textblocktransform"><svg viewBox="0 0 395.52 133.75969938938468" height="133.75969938938468" width="395.52" id="textblock"><g><svg viewBox="0 0 395.52 133.75969938938468" height="133.75969938938468" width="395.52"><g transform="matrix(1,0,0,1,0,0)"><svg width="395.52" viewBox="1.75 -35.25 106.44 36" height="133.75969938938468" data-palette-color="#000000"><path d="M14.5-35.25Q17.15-35.25 19.18-34.38 21.2-33.5 23.1-31.7L23.1-31.7 20.05-28.05Q18.75-29.25 17.53-29.83 16.3-30.4 14.85-30.4L14.85-30.4Q11.85-30.4 10.15-27.4 8.45-24.4 8.45-17.35L8.45-17.35Q8.45-10.4 10.15-7.38 11.85-4.35 14.95-4.35L14.95-4.35Q16.5-4.35 17.65-4.98 18.8-5.6 20.35-6.9L20.35-6.9 23.4-3.4Q21.8-1.6 19.55-0.43 17.3 0.75 14.5 0.75L14.5 0.75Q8.65 0.75 5.2-3.8 1.75-8.35 1.75-17.35L1.75-17.35Q1.75-23.3 3.4-27.3 5.05-31.3 7.93-33.27 10.8-35.25 14.5-35.25L14.5-35.25ZM43.55-6.4Q43.55-5.1 43.9-4.48 44.25-3.85 45.05-3.45L45.05-3.45 43.8 0.65Q41.75 0.4 40.52-0.45 39.3-1.3 38.7-3.05L38.7-3.05Q36.4 0.75 32.25 0.75L32.25 0.75Q28.95 0.75 27-1.48 25.05-3.7 25.05-7.4L25.05-7.4Q25.05-11.7 27.72-13.95 30.4-16.2 35.5-16.2L35.5-16.2 37.55-16.2 37.55-18.05Q37.55-20.55 36.67-21.58 35.8-22.6 33.85-22.6L33.85-22.6Q31.5-22.6 28-21.3L28-21.3 26.6-25.3Q28.6-26.2 30.75-26.68 32.9-27.15 34.85-27.15L34.85-27.15Q43.55-27.15 43.55-18.35L43.55-18.35 43.55-6.4ZM33.9-3.7Q36.3-3.7 37.55-7L37.55-7 37.55-12.55 36.1-12.55Q33.55-12.55 32.37-11.4 31.2-10.25 31.2-7.85L31.2-7.85Q31.2-5.8 31.9-4.75 32.6-3.7 33.9-3.7L33.9-3.7ZM60.5-5L62.65-1.2Q60.2 0.75 56.9 0.75L56.9 0.75Q53.45 0.75 51.65-1.23 49.85-3.2 49.85-6.6L49.85-6.6 49.85-22 46.75-22 46.75-26.45 49.85-26.45 49.85-32.3 56-33.05 56-26.45 61-26.45 60.4-22 56-22 56-6.6Q56-4.2 58.05-4.2L58.05-4.2Q58.7-4.2 59.2-4.38 59.7-4.55 60.5-5L60.5-5ZM74.59-27.15Q79.59-27.15 82.37-23.65 85.14-20.15 85.14-13.25L85.14-13.25Q85.14-6.65 82.34-2.95 79.54 0.75 74.59 0.75L74.59 0.75Q69.64 0.75 66.84-2.88 64.04-6.5 64.04-13.25L64.04-13.25Q64.04-19.95 66.84-23.55 69.64-27.15 74.59-27.15L74.59-27.15ZM74.59-22.5Q72.44-22.5 71.44-20.38 70.44-18.25 70.44-13.25L70.44-13.25Q70.44-8.2 71.44-6.08 72.44-3.95 74.59-3.95L74.59-3.95Q76.74-3.95 77.74-6.08 78.74-8.2 78.74-13.25L78.74-13.25Q78.74-18.3 77.74-20.4 76.74-22.5 74.59-22.5L74.59-22.5ZM102.04-27.15Q104.89-27.15 106.54-25.1 108.19-23.05 108.19-19.6L108.19-19.6 108.19 0 102.04 0 102.04-18.9Q102.04-20.8 101.52-21.63 100.99-22.45 99.99-22.45L99.99-22.45Q97.89-22.45 95.84-18.5L95.84-18.5 95.84 0 89.69 0 89.69-26.45 95.04-26.45 95.49-23Q96.84-25.1 98.37-26.13 99.89-27.15 102.04-27.15L102.04-27.15Z" opacity="1" transform="matrix(1,0,0,1,0,0)" fill="#000000" class="wordmark-text-0" data-fill-palette-color="primary" id="text-0"></path></svg></g></svg></g></svg></g></svg></g><g><svg viewBox="0 0 153.4751326768592 153.4304007815876" height="153.4304007815876" width="153.4751326768592"><g><svg xmlns="http://www.w3.org/2000/svg" xmlns:xlink="http://www.w3.org/1999/xlink" version="1.1" x="0" y="0" viewBox="5.143 5.361 89.206 89.17999999999999" enable-background="new 0 0 100 100" xml:space="preserve" height="153.4304007815876" width="153.4751326768592" class="icon-icon-0" data-fill-palette-color="accent" id="icon-0"><path fill-rule="evenodd" clip-rule="evenodd" d="M50.026 94.541C25.69 94.528 5.245 76.394 5.143 49.977 5.245 23.509 26.749 5.361 50.078 5.361 76.75 5.361 94.247 29.277 94.247 49.976 94.247 57.021 94.247 57.301 91.899 64.052L39.282 64.078C38.031 64.065 37.023 62.738 37.023 61.487S38.057 59.534 39.295 59.534L50.002 59.432V58.207H32.428A2.255 2.255 0 0 1 30.169 55.948C30.169 54.697 31.203 53.715 32.441 53.715H50.001L49.988 52.222H30.233C28.982 52.209 27.974 51.201 27.974 49.95S28.995 47.691 30.233 47.691H50.001V46.185H34.763A2.274 2.274 0 0 1 32.504 43.913C32.504 42.662 33.538 41.718 34.763 41.743H61.397V40.15H52.17C50.97 40.137 49.988 39.129 49.988 37.878S51.149 35.67 52.17 35.67L61.295 35.644C68.072 35.644 72.64 41.744 72.64 46.185H76.277C75.371 34.699 65.098 23.507 50.077 23.52 32.53 23.509 23.66 38.006 23.711 49.977 23.66 64.079 35.108 76.1 49.478 76.394 49.478 71.966 54.047 65.865 60.823 65.865L69.948 65.891C70.969 65.891 72.13 66.848 72.13 68.099S71.147 70.358 69.948 70.371H60.721V71.966H87.559C88.784 71.94 89.818 72.885 89.818 74.136S88.81 76.395 87.559 76.408H72.117V77.914H92.09A2.263 2.263 0 0 1 94.349 80.173 2.274 2.274 0 0 1 92.09 82.445H72.13L72.117 83.938H89.882C91.12 83.938 92.154 84.921 92.154 86.171A2.255 2.255 0 0 1 89.895 88.43H72.117V89.859L83.028 89.961C84.266 89.961 85.3 90.663 85.3 91.914S84.292 94.492 83.041 94.505z" fill="#057a85" data-fill-palette-color="accent"></path></svg></g></svg></g></svg></g><defs></defs></svg><rect width="395.52" height="104.52576202674906" fill="none" stroke="none" visibility="hidden"></rect></g></svg></g></svg>